# AST/ASF file generated using VICON BodyLanguage
# -----------------------------------------------
:version 1.10
:name VICON
:units
  mass 1.0
  length 0.45
  angle deg
:documentation
   .ast/.asf automatically generated from VICON data using
   VICON BodyBuilder and BodyLanguage model FoxedUp or BRILLIANT.MOD
:root
   order TX TY TZ RX RY RZ
   axis XYZ
   position 0 0 0  
   orientation 0 0 0 
:bonedata
  begin
     id 1 
     name lhipjoint
     direction 0.635376 -0.686425 0.353719 
     length 2.47244 
     axis 0 0 0  XYZ
  end
  begin
     id 2 
     name lfemur
     direction 0.34202 -0.939693 0  
     length 7.25268  
     axis 0 0 20  XYZ
    dof rx ry rz
    limits (-160.0 20.0)
           (-70.0 70.0)
           (-60.0 70.0)
  end
  begin
     id 3 
     name ltibia
     direction 0.34202 -0.939693 0   
     length 7.6767   
     axis 0 0 20   XYZ
    dof rx
    limits (-10.0 170.0)
  end
  begin
     id 4 
     name lfoot
     direction 0.0803374 -0.220725 0.972022   
     length 2.22945   
     axis -90 7.62852e-016 20   XYZ
    dof rx rz
    limits (-45.0 90.0)
           (-70.0 20.0)
  end
  begin
     id 5 
     name ltoes
     direction 1.53579e-011 -4.21994e-011 1   
     length 1.11848   
     axis -90 7.62852e-016 20   XYZ
    dof rx
    limits (-90.0 20.0)
  end
  begin
     id 6 
     name rhipjoint
     direction -0.664428 -0.664335 0.342336   
     length 2.55466  
     axis 0 0 0  XYZ 
  end
  begin
     id 7 
     name rfemur
     direction -0.34202 -0.939693 0   
     length 6.83172   
     axis 0 0 -20   XYZ
    dof rx ry rz
    limits (-160.0 20.0)
           (-70.0 70.0)
           (-70.0 60.0)
  end
  begin
     id 8 
     name rtibia
     direction -0.34202 -0.939693 0   
     length 7.62692   
     axis 0 0 -20   XYZ
    dof rx
    limits (-10.0 170.0)
 end
 begin
     id 9 
     name rfoot
     direction -0.0949276 -0.260811 0.960711   
     length 2.19684  
     axis -90 -7.62852e-016 -20   XYZ
    dof rx rz
    limits (-45.0 90.0)
           (-20.0 70.0)
  end
  begin
     id 10 
     name rtoes
     direction -1.53543e-011 -4.2183e-011 1   
     length 1.09848   
     axis -90 -7.62852e-016 -20   XYZ
    dof rx
    limits (-90.0 20.0)
  end
  begin
     id 11 
     name lowerback
     direction 0.0118782 0.999815 -0.0151555   
     length 2.15772   
     axis 0 0 0   XYZ
    dof rx ry rz
    limits (-20.0 45.0)
           (-30.0 30.0)
           (-30.0 30.0)
  end
  begin
     id 12 
     name upperback
     direction 0.00130825 0.999065 0.0432113   
     length 2.14863   
     axis 0 0 0   XYZ
    dof rx ry rz
    limits (-20.0 45.0)
           (-30.0 30.0)
           (-30.0 30.0)
  end
  begin
     id 13 
     name thorax
     direction -0.00347005 0.998773 0.0494011   
     length 2.14936   
     axis 0 0 0   XYZ
    dof rx ry rz
    limits (-20.0 45.0)
           (-30.0 30.0)
           (-30.0 30.0)
  end
  begin
     id 14 
     name lowerneck
     direction -0.0262159 0.99424 0.103921   
     length 1.69373   
     axis 0 0 0   XYZ
    dof rx ry rz
    limits (-20.0 45.0)
           (-30.0 30.0)
           (-30.0 30.0)
  end
  begin
     id 15 
     name upperneck
     direction 0.0353511 0.977394 -0.20845   
     length 1.70857   
     axis 0 0 0   XYZ
    dof rx ry rz
    limits (-20.0 45.0)
           (-30.0 30.0)
           (-30.0 30.0)
  end
  begin
     id 16
     name head
     direction 0.0139214 0.996594 -0.0812836  
     length 1.72777  
     axis 0 0 0   XYZ
    dof rx ry rz
    limits (-20.0 45.0)
           (-30.0 30.0)
           (-30.0 30.0)
  end
  begin
     id 17 
     name lclavicle
     direction 0.841247 0.537205 -0.0609508  
     length 3.55371  
     axis 0 0 0   XYZ
    dof ry rz
    limits (-20.0 10.0)
           (0.0 20.0)
  end
  begin
     id 18 
     name lhumerus
     direction 1 -4.48964e-011 1.60116e-018   
     length 4.91377   
     axis -180 -30 -90   XYZ
    dof rx ry rz
    limits (-60.0 90.0)
           (-90.0 90.0)
           (-90.0 90.0)
  end
  begin
     id 19
     name lradius
     direction 1 -4.48989e-011 -8.93847e-027   
     length 3.00291   
     axis -180 -30 -90   XYZ
    dof rx
    limits (-10.0 170.0)
  end
  begin
     id 20
     name lwrist
     direction 1 -4.48932e-011 -7.31504e-027   
     length 1.50145   
     axis 5.74121e-015 90 90   XYZ
    dof ry
    limits (-180.0 0.0)
 end
  begin
     id 21 
     name lhand
     direction 1 -4.48971e-011 -1.46301e-026   
     length 0.450922   
     axis 9.33524e-015 90 90   XYZ
    dof rx rz
    limits (-90.0 90.0)
           (-45.0 45.0)
  end
  begin
     id 22 
     name lfingers
     direction 1 -4.49039e-011 -2.92602e-026   
     length 0.363545   
     axis 1.86705e-014 90 90   XYZ
    dof rx
    limits (0.0 90.0)
  end
  begin
     id 23
     name lthumb
     direction 0.707107 -6.34941e-011 0.707107   
     length 0.52198   
     axis -90 45 2.85299e-015   XYZ
    dof rx rz
    limits (-45.0 45.0)
           (-45.0 45.0)
  end
  begin
     id 24 
     name rclavicle
     direction -0.825079 0.56158 -0.0622297   
     length 3.39909  
     axis 0 0 0   XYZ 
    dof ry rz
    limits (-10.0 20.0)
           (-20.0 0.0)
  end
  begin
     id 25 
     name rhumerus
     direction -1 -4.48965e-011 1.61691e-027  
     length 4.86725   
     axis -180 30 90   XYZ
    dof rx ry rz
    limits (-90.0 60.0)
           (-90.0 90.0)
           (-90.0 90.0)
  end
  begin
     id 26 
     name rradius
     direction -1 -4.48964e-011 -2.25776e-027   
     length 3.17144   
     axis -180 30 90   XYZ
    dof rx
    limits (-10.0 170.0)
  end
  begin
     id 27 
     name rwrist
     direction -1 -4.48961e-011 -7.31504e-027   
     length 1.58572   
     axis 5.74121e-015 -90 -90   XYZ
    dof ry
    limits (-180.0 0.0)
  end
  begin
     id 28
     name rhand
     direction -1 -4.49013e-011 -1.46301e-026   
     length 0.419368   
     axis 9.33524e-015 -90 -90   XYZ
    dof rx rz
    limits (-90.0 90.0)
           (-45.0 45.0)
  end
  begin
     id 29
     name rfingers
     direction -1 -4.489e-011 -2.92602e-026   
     length 0.338105   
     axis 1.86705e-014 -90 -90   XYZ
    dof rx
    limits (0.0 90.0)
  end
  begin
     id 30
     name rthumb
     direction -0.707107 -6.35022e-011 0.707107   
     length 0.485453   
     axis -90 -45 -2.85299e-015   XYZ
    dof rx rz
    limits (-45.0 45.0)
           (-45.0 45.0)
  end
:hierarchy
  begin
    root lhipjoint rhipjoint lowerback
    lhipjoint lfemur
    lfemur ltibia
    ltibia lfoot
    lfoot ltoes
    rhipjoint rfemur
    rfemur rtibia
    rtibia rfoot
    rfoot rtoes
    lowerback upperback
    upperback thorax
    thorax lowerneck lclavicle rclavicle
    lowerneck upperneck
    upperneck head
    lclavicle lhumerus
    lhumerus lradius
    lradius lwrist
    lwrist lhand lthumb
    lhand lfingers
    rclavicle rhumerus
    rhumerus rradius
    rradius rwrist
    rwrist rhand rthumb
    rhand rfingers
  end

#!OML:ASF H:\Swim 2\Project 1\Capture day 1\Session 1\male.ASF
:FULLY-SPECIFIED
:DEGREES
829
root 7.42249 9.06585 10.0264 89.6395 1.88858 3.51288
lowerback -2.54557 2.22153 -4.82071
upperback -0.432033 3.08462 2.85372
thorax 0.568862 1.54684 5.74538
lowerneck -4.33874 -12.8936 -15.4306
upperneck 28.1681 -20.3678 18.8388
head 14.1249 -8.79925 7.03994
rclavicle -3.02153e-014 1.2921e-015
rhumerus 25.9009 15.541 -7.17171
rradius 102.455
rwrist -45.7642
rhand -33.3605 1.73399
rfingers 7.12502
rthumb -6.56219 -28.1443
lclavicle -3.02153e-014 1.2921e-015
lhumerus 42.5271 -23.5526 15.4563
lradius 104.446
lwrist 64.4641
lhand -46.8915 3.26672
lfingers 7.12502
lthumb -19.603 32.2984
rfemur -49.9864 19.0959 12.0205
rtibia 43.622
rfoot 31.4904 12.9397
rtoes 21.813
lfemur -43.818 -5.99672 -23.1274
ltibia 46.4389
lfoot -10.843 27.3925
ltoes 14.4024
830
root 7.41886 9.06147 10.0138 89.414 1.88925 3.57715
lowerback -2.45877 2.24848 -4.798
upperback -0.377079 3.11619 2.81102
thorax 0.576331 1.56062 5.6856
lowerneck -4.65853 -12.9424 -15.422
upperneck 28.115 -20.4789 19.0488
head 14.2338 -8.81474 7.08396
rclavicle 3.18055e-014 -1.68967e-014
rhumerus 25.7748 16.6564 -7.09053
rradius 103.648
rwrist -45.7749
rhand -33.6697 2.17212
rfingers 7.12502
rthumb -6.86072 -27.6967
lclavicle 3.18055e-014 -1.68967e-014
lhumerus 43.2931 -24.3134 14.784
lradius 105.452
lwrist 64.4584
lhand -47.2688 2.68211
lfingers 7.12502
lthumb -19.9656 31.6764
rfemur -50.1755 19.0449 11.9662
rtibia 44.3417
rfoot 32.1239 13.0505
rtoes 22.7638
lfemur -43.7169 -5.86315 -23.2717
ltibia 46.7635
lfoot -10.7947 27.2248
ltoes 14.5709
831
root 7.41494 9.05747 10.0035 89.1826 1.8914 3.64269
lowerback -2.35558 2.27944 -4.76861
upperback -0.321744 3.15233 2.75913
thorax 0.57534 1.57694 5.61166
lowerneck -4.97431 -13.0038 -15.3773
upperneck 28.0337 -20.6007 19.2311
head 14.3227 -8.83398 7.10562
rclavicle -2.54444e-014 -1.71949e-014
rhumerus 25.6833 17.7261 -7.00426
rradius 104.781
rwrist -45.7486
rhand -34.0274 2.56683
rfingers 7.12502
rthumb -7.20598 -27.2905
lclavicle -2.54444e-014 -1.71949e-014
lhumerus 44.0471 -25.0199 14.1657
lradius 106.457
lwrist 64.4742
lhand -47.5699 1.99713
lfingers 7.12502
lthumb -20.2551 30.961
rfemur -50.3248 18.9575 11.9396
rtibia 45.0234
rfoot 32.7998 13.1323
rtoes 23.5943
lfemur -43.6437 -5.73357 -23.4063
ltibia 47.1301
lfoot -10.5529 27.0155
ltoes 14.585
832
root 7.41067 9.05375 9.99521 88.9401 1.89195 3.70211
lowerback -2.22565 2.30928 -4.74006
upperback -0.271127 3.18593 2.70495
thorax 0.554995 1.5927 5.53429
lowerneck -5.30834 -13.0779 -15.2681
upperneck 27.9772 -20.7116 19.2778
head 14.3922 -8.8493 7.05933
rclavicle 3.81667e-014 2.43014e-014
rhumerus 25.6661 18.7592 -6.89871
rradius 105.864
rwrist -45.7701
rhand -34.4022 2.87162
rfingers 7.12502
rthumb -7.56779 -26.973
lclavicle 3.81667e-014 2.43014e-014
lhumerus 44.7471 -25.6838 13.603
lradius 107.476
lwrist 64.4772
lhand -47.873 1.11797
lfingers 7.12502
lthumb -20.5464 30.0507
rfemur -50.4356 18.8492 11.9339
rtibia 45.6683
rfoot 33.4397 13.2264
rtoes 24.131
lfemur -43.5927 -5.6072 -23.5338
ltibia 47.5348
lfoot -10.1717 26.7901
ltoes 14.32
833
root 7.40611 9.05031 9.98878 88.6785 1.88527 3.74721
lowerback -2.05843 2.33857 -4.72285
upperback -0.225132 3.21755 2.6535
thorax 0.50852 1.60835 5.46416
lowerneck -5.67944 -13.1681 -15.0742
upperneck 27.9786 -20.8032 19.1216
head 14.444 -8.85776 6.91522
rclavicle -3.33958e-014 -1.55052e-014
rhumerus 25.7431 19.7638 -6.75574
rradius 106.902
rwrist -45.8716
rhand -34.7705 3.09748
rfingers 7.12502
rthumb -7.92324 -26.734
lclavicle -3.33958e-014 -1.55052e-014
lhumerus 45.3797 -26.3265 13.0995
lradius 108.498
lwrist 64.3654
lhand -48.1714 0.108507
lfingers 7.12502
lthumb -20.8331 29.01
rfemur -50.506 18.7357 11.9424
rtibia 46.2828
rfoot 33.9862 13.3407
rtoes 24.4241
lfemur -43.5549 -5.47375 -23.6641
ltibia 47.9754
lfoot -9.69834 26.5787
ltoes 13.7743
834
root 7.40118 9.047 9.98379 88.3966 1.86798 3.77517
lowerback -1.85167 2.3655 -4.72033
upperback -0.187448 3.24465 2.6088
thorax 0.430733 1.62287 5.40709
lowerneck -6.08392 -13.2673 -14.7965
upperneck 28.0497 -20.856 18.7251
head 14.4711 -8.8544 6.66352
rclavicle 3.65764e-014 -9.93923e-016
rhumerus 25.9207 20.7566 -6.56698
rradius 107.905
rwrist -46.061
rhand -35.1557 3.25364
rfingers 7.12502
rthumb -8.29503 -26.5635
lclavicle 3.65764e-014 -9.93923e-016
lhumerus 45.9224 -26.9427 12.6242
lradius 109.543
lwrist 64.1025
lhand -48.4827 -0.979352
lfingers 7.12502
lthumb -21.1321 27.889
rfemur -50.5436 18.6374 11.9545
rtibia 46.8754
rfoot 34.399 13.4698
rtoes 24.5576
lfemur -43.5294 -5.33487 -23.8001
ltibia 48.4539
lfoot -9.22009 26.4085
ltoes 13.0904
835
root 7.39626 9.04387 9.98016 88.1029 1.83983 3.7855
lowerback -1.618 2.3976 -4.73953
upperback -0.157802 3.27789 2.57504
thorax 0.326946 1.64146 5.37211
lowerneck -6.51235 -13.3803 -14.4441
upperneck 28.175 -20.8849 18.1249
head 14.4763 -8.84634 6.32015
rclavicle -1.59028e-015 7.65321e-015
rhumerus 26.1723 21.7371 -6.31757
rradius 108.88
rwrist -46.3148
rhand -35.5864 3.4
rfingers 7.12502
rthumb -8.71073 -26.4003
lclavicle -1.59028e-015 7.65321e-015
lhumerus 46.41 -27.5706 12.1825
lradius 110.576
lwrist 63.5946
lhand -48.767 -2.01181
lfingers 7.12502
lthumb -21.4052 26.8258
rfemur -50.5632 18.55 11.9696
rtibia 47.4521
rfoot 34.6538 13.6208
rtoes 24.5356
lfemur -43.5266 -5.19232 -23.942
ltibia 48.9747
lfoot -8.79067 26.3023
ltoes 12.5085
836
root 7.39168 9.04119 9.97829 87.8101 1.80474 3.77934
lowerback -1.37154 2.43907 -4.77713
upperback -0.138965 3.32331 2.55365
thorax 0.20151 1.66713 5.35936
lowerneck -6.79694 -13.456 -14.2482
upperneck 28.1329 -20.9192 17.8438
head 14.4516 -8.84806 6.13914
rclavicle 2.22639e-014 -5.86415e-015
rhumerus 26.4661 22.7058 -6.01214
rradius 109.827
rwrist -46.5283
rhand -36.0643 3.4983
rfingers 7.12502
rthumb -9.1718 -26.2822
lclavicle 2.22639e-014 -5.86415e-015
lhumerus 46.8705 -28.2217 11.7587
lradius 111.581
lwrist 62.8259
lhand -49.0022 -2.81479
lfingers 7.12502
lthumb -21.6311 25.997
rfemur -50.5809 18.4642 11.9915
rtibia 48.0124
rfoot 34.8508 13.7749
rtoes 24.646
lfemur -43.5642 -5.04716 -24.0864
ltibia 49.5442
lfoot -8.4019 26.272
ltoes 12.162
837
root 7.38774 9.03907 9.97823 87.5371 1.76759 3.76328
lowerback -1.1343 2.49422 -4.82342
upperback -0.128922 3.38739 2.54331
thorax 0.0685774 1.70271 5.36295
lowerneck -6.9338 -13.5053 -14.2189
upperneck 27.9022 -20.9765 17.9076
head 14.3961 -8.86537 6.12609
rclavicle -4.77083e-015 -1.49089e-015
rhumerus 26.7647 23.6568 -5.65425
rradius 110.745
rwrist -46.6407
rhand -36.6489 3.61281
rfingers 7.12502
rthumb -9.73594 -26.1422
lclavicle -4.77083e-015 -1.49089e-015
lhumerus 47.3412 -28.8893 11.3321
lradius 112.544
lwrist 61.8385
lhand -49.1994 -3.35912
lfingers 7.12502
lthumb -21.8205 25.4307
rfemur -50.6174 18.3626 12.0238
rtibia 48.5547
rfoot 34.9526 13.9385
rtoes 24.6774
lfemur -43.6662 -4.91062 -24.2245
ltibia 50.1693
lfoot -8.0239 26.2884
ltoes 12.3101
838
root 7.38468 9.03785 9.98064 87.296 1.73365 3.7433
lowerback -0.919952 2.5617 -4.86738
upperback -0.128312 3.46875 2.53966
thorax -0.0638435 1.7473 5.37257
lowerneck -6.91517 -13.5265 -14.3717
upperneck 27.4708 -21.0643 18.3686
head 14.3173 -8.89982 6.30274
rclavicle 1.59028e-014 2.48481e-014
rhumerus 27.039 24.5902 -5.26704
rradius 111.638
rwrist -46.6218
rhand -37.3704 3.77988
rfingers 7.12502
rthumb -10.432 -25.9413
lclavicle 1.59028e-014 2.48481e-014
lhumerus 47.841 -29.5682 10.8756
lradius 113.471
lwrist 60.7299
lhand -49.3817 -3.67036
lfingers 7.12502
lthumb -21.9955 25.099
rfemur -50.6825 18.2335 12.0706
rtibia 49.0755
rfoot 35.0298 14.0975
rtoes 24.6937
lfemur -43.8541 -4.78066 -24.3541
ltibia 50.8568
lfoot -7.53363 26.3046
ltoes 13.0998
839
root 7.38259 9.03759 9.98559 87.0975 1.7096 3.72395
lowerback -0.740626 2.63691 -4.89626
upperback -0.136029 3.56177 2.53863
thorax -0.186076 1.79773 5.37736
lowerneck -6.94899 -13.5666 -14.4693
upperneck 27.0904 -21.1514 18.7026
head 14.2448 -8.93338 6.41575
rclavicle 3.33958e-014 -1.21259e-014
rhumerus 27.2797 25.4934 -4.87812
rradius 112.508
rwrist -46.4857
rhand -38.1562 3.97506
rfingers 7.12502
rthumb -11.1899 -25.7065
lclavicle 3.33958e-014 -1.21259e-014
lhumerus 48.3698 -30.2433 10.3795
lradius 114.363
lwrist 59.602
lhand -49.5864 -3.92718
lfingers 7.12502
lthumb -22.1921 24.8189
rfemur -50.7865 18.0659 12.1401
rtibia 49.5748
rfoot 35.0833 14.2509
rtoes 24.7279
lfemur -44.141 -4.65943 -24.4686
ltibia 51.6116
lfoot -6.88726 26.2795
ltoes 14.5741
